<!-- «La Naranja Mecánica» wordmark — cropped to its content bbox (orig viewBox 0 0 2048 1431,
     content ≈ x[364,1782] y[208,1131]) and the full-canvas white background rect removed so the
     mark sits transparently on the print's white ground. -->
<svg version="1.1" xmlns="http://www.w3.org/2000/svg" style="display: block;" viewBox="356 200 1436 940" preserveAspectRatio="xMidYMid meet">
<path transform="translate(0,0)" fill="rgb(254,109,1)" d="M 1209.4 463.358 C 1224.49 467.126 1263.47 483.451 1279.99 489.378 C 1348.45 513.95 1415.44 529.4 1468.93 582.384 C 1501.64 614.783 1523.67 652.496 1539.89 695.608 C 1542.77 703.262 1547.31 717.377 1547.41 725.281 C 1510.99 731.366 1448.91 721.994 1416.84 702.604 C 1403 694.241 1391.18 683.136 1375.87 675.864 C 1363.17 667.748 1345.68 666.357 1332.83 660.332 C 1264.6 628.348 1208.08 534.075 1209.4 463.358 z"/>
<path transform="translate(0,0)" fill="rgb(254,109,1)" d="M 364.004 895.991 L 425.9 896.022 C 448.977 941.974 472.187 993.888 495.892 1038.38 C 517.71 990.684 540.053 943.233 562.919 896.033 L 621.874 896.052 L 621.954 1130.75 L 574.986 1130.81 L 575.038 1017.75 L 574.948 967.603 C 570.009 980.369 559.816 999.314 553.639 1012.39 C 538.489 1044.44 522.334 1076.21 507.781 1108.57 L 480.676 1108.61 C 457.301 1062.93 435.079 1014.45 412.012 968.196 L 412.092 1130.7 C 396.438 1131.04 379.725 1130.77 363.991 1130.78 L 364.004 895.991 z"/>
<path transform="translate(0,0)" fill="rgb(254,109,1)" d="M 375.606 616.48 C 388.896 616.173 403.964 616.496 417.37 616.507 C 453.818 670.48 492.234 728.995 529.97 781.774 C 531.362 728.217 529.672 672.001 530.411 618.003 L 578.873 617.844 L 578.861 776.871 C 578.874 796.653 580.271 837.659 578.564 855.621 C 575.286 857.563 573.762 856.905 569.499 857.006 L 526.36 856.924 C 489.103 802.708 448.139 745.854 412.45 690.948 L 412.351 856.813 C 396.813 857.26 379.644 856.951 363.986 856.964 L 364.006 697.682 C 364.006 677.231 362.71 636.509 364.458 617.643 C 367.468 616.136 372.035 616.52 375.606 616.48 z"/>
<path transform="translate(0,0)" fill="rgb(254,169,3)" d="M 1475.3 407.395 C 1487.34 405.735 1506.18 407.792 1517.96 410.762 C 1548.81 418.357 1575.39 437.881 1591.85 465.05 C 1627.02 524.031 1601.57 593.53 1544.34 627.527 C 1538.2 617.843 1532.47 609.03 1525.89 599.657 C 1483.76 540.501 1432.05 511.703 1366.29 485.748 C 1371.66 473.918 1378.54 462.835 1386.77 452.776 C 1409.92 424.992 1439.78 410.811 1475.3 407.395 z"/>
<path transform="translate(0,0)" fill="rgb(254,109,1)" d="M 600.082 412.418 C 619.971 410.605 646.38 415.78 660.814 430.6 C 682.588 452.957 678.793 486.496 678.778 515.4 L 678.783 584.434 L 634.267 584.638 L 634.059 565.918 C 608.337 595.123 555.025 596.756 532.871 562.989 C 527.073 550.794 524.572 538.149 527.801 524.915 C 538.895 479.448 597.56 477.065 633.754 485.641 C 633.645 481.449 633.588 477.238 632.851 473.123 C 628.275 447.596 599.202 444.242 579.197 453.678 C 571.249 457.427 567.916 460.727 561.681 466.873 C 552.833 460.258 541.649 451.565 533.512 444.409 C 534.016 443.795 534.529 443.187 535.05 442.587 C 552.67 422.149 573.939 414.437 600.082 412.418 z"/>
<path transform="translate(0,0)" fill="rgb(255,255,255)" d="M 597.254 511.281 C 611.197 509.819 620.696 511.495 633.841 514.868 C 633.852 536.301 628.953 545.868 608.19 553.253 C 598.386 554.396 588.454 555.534 579.511 550.19 C 569.873 544.429 566.655 531.94 573.754 522.735 C 579.953 514.698 587.67 512.863 597.254 511.281 z"/>
<path transform="translate(0,0)" fill="rgb(254,109,1)" d="M 1606.48 957.403 C 1626.75 954.846 1654.12 960.876 1668.94 975.765 C 1691.07 998 1687.15 1031.02 1687.07 1060.07 L 1687.06 1129.51 C 1673.32 1129.78 1658.74 1129.6 1644.94 1129.63 L 1644.78 1109.96 C 1617.61 1140.57 1561.82 1141.35 1539.69 1104.83 C 1528.37 1080.87 1534.56 1053.55 1557.33 1039.07 C 1582.53 1023.03 1615.83 1024.23 1644.02 1030.22 C 1643.97 1026.35 1644.03 1022.08 1643.33 1018.31 C 1638.39 991.773 1607.49 988.696 1586.96 998.734 C 1579.3 1002.48 1575.91 1006.03 1570.11 1012.11 L 1541.41 990.398 C 1542.32 989.176 1543.26 987.978 1544.23 986.807 C 1560.6 967.179 1581.84 959.565 1606.48 957.403 z"/>
<path transform="translate(0,0)" fill="rgb(255,255,255)" d="M 1614.57 1055.43 C 1626.77 1055.73 1632.66 1056.5 1644.18 1059.49 C 1644.35 1084.8 1634.64 1096.15 1609.25 1099.18 C 1591.13 1099.23 1566.69 1091.08 1583.21 1066.13 C 1588.88 1057.57 1604.64 1055.99 1614.57 1055.43 z"/>
<path transform="translate(0,0)" fill="rgb(254,109,1)" d="M 675.637 682.397 C 709.469 677.483 746.06 694.316 752.81 730.005 C 756.218 748.022 755.171 766.885 755.129 785.174 L 754.985 855.109 C 740.853 855.223 726.721 855.251 712.588 855.195 C 712.535 848.793 712.683 842.155 712.735 835.731 C 693.768 856.36 671.257 862.183 643.494 856.392 C 628.615 853.288 617.722 844.598 609.823 831.761 C 601.43 811.97 602.629 789.118 617.282 772.406 C 633.605 753.791 662.957 750.022 686.244 751.363 C 694.103 751.816 702.66 754.374 710.455 753.897 C 714.97 749.724 710.916 742.119 709.197 737.102 C 701.643 715.058 673.309 715.052 655.965 724.469 C 649.026 728.237 645.519 731.733 640.009 737.185 L 611.619 715.499 C 612.177 714.786 612.742 714.08 613.314 713.379 C 630.651 692.181 649.19 685.033 675.637 682.397 z"/>
<path transform="translate(0,0)" fill="rgb(255,255,255)" d="M 680.076 780.409 C 690.804 779.201 701.775 781.646 712.073 784.412 C 712.409 807.547 705.059 819.739 681.244 823.768 C 668.12 824.344 650.054 823.059 648.606 805.707 C 648.176 800.341 649.896 795.024 653.389 790.927 C 660.473 782.568 669.903 781.279 680.076 780.409 z"/>
<path transform="translate(0,0)" fill="rgb(254,109,1)" d="M 719.633 958.339 C 758.144 953.881 791.043 973.608 801.83 1011.48 C 806.237 1026.96 806.258 1041.15 805.377 1056.94 L 687.299 1057.07 C 696.847 1103.03 746.32 1109.13 773.322 1074.92 L 783.514 1082.36 C 789.546 1086.98 796.198 1091.68 802.363 1096.19 L 801.632 1097.21 C 773.121 1136.68 716.638 1143.35 677.251 1115.94 C 639.119 1089.41 635.349 1025.43 662.845 990.212 C 677.82 971.033 695.49 961.561 719.633 958.339 z"/>
<path transform="translate(0,0)" fill="rgb(255,255,255)" d="M 721.074 993.144 C 747.181 991.146 760.354 1001.69 765.496 1027.1 L 733.926 1027.21 L 688.075 1027.25 C 693.487 1007.24 700.771 998.468 721.074 993.144 z"/>
<path transform="translate(0,0)" fill="rgb(254,109,1)" d="M 1312.58 682.375 C 1344.7 678.078 1379.32 692.774 1385.8 727.066 C 1389.23 745.187 1388.24 763.793 1388.22 782.168 L 1388.12 852.965 C 1374.78 853.08 1361.45 853.103 1348.12 853.033 L 1348.04 833.72 C 1324.08 863.907 1274.57 863.81 1252.56 830.986 C 1247.73 822.001 1245.65 812.822 1246.24 802.625 C 1249.32 749.925 1306.8 743.947 1347.69 753.485 C 1346.89 731.962 1339.97 717.762 1314.95 718.122 C 1300.19 718.334 1289.99 725.451 1280.11 736.042 L 1253.38 714.694 C 1253.77 714.178 1254.17 713.668 1254.57 713.164 C 1270.94 692.889 1286.8 685.091 1312.58 682.375 z"/>
<path transform="translate(0,0)" fill="rgb(255,255,255)" d="M 1317.05 778.333 C 1327.63 777.534 1337.84 779.745 1347.91 782.579 C 1348.46 804.62 1342.49 815.329 1320.81 821.127 C 1308.03 822.252 1291.8 821.31 1288.46 805.505 C 1287.32 799.994 1288.61 794.26 1291.99 789.764 C 1298.18 781.405 1307.44 779.544 1317.05 778.333 z"/>
<path transform="translate(0,0)" fill="rgb(254,109,1)" d="M 943.459 682.373 C 961.067 679.781 985.278 685.098 998.213 698.19 C 1019.79 720.032 1016.16 753.325 1016.14 781.867 L 1016.02 852.915 C 1003.23 853.083 990.448 853.125 977.663 853.041 L 977.798 833.557 C 952.886 863.896 906.32 864.259 883.898 831.2 C 865.325 791.814 888.91 755.233 930.909 750.644 C 948.318 748.742 960.298 749.689 977.059 753.588 C 976.991 749.816 976.95 745.577 976.323 741.894 C 972.261 718.009 946.744 712.821 927.488 722.681 C 919.808 726.613 916.99 729.745 911.064 736.063 C 902.506 728.889 893.897 721.776 885.239 714.723 C 899.919 693.371 918.487 685.04 943.459 682.373 z"/>
<path transform="translate(0,0)" fill="rgb(255,255,255)" d="M 948.654 778.351 C 958.165 777.677 968.07 779.892 977.135 782.495 C 977.41 805.345 971.744 817.142 948.032 821.674 C 941.014 822.271 932.607 821.327 926.703 817.195 C 922.474 814.294 919.684 809.725 919.037 804.637 C 916.542 785.954 934.173 780.037 948.654 778.351 z"/>
<path transform="translate(0,0)" fill="rgb(254,109,1)" d="M 1043.03 958.414 C 1110.53 960.506 1108 1006.14 1107.93 1058.1 L 1107.78 1128.02 L 1071.2 1128.04 L 1071.07 1108.98 C 1047.34 1140.67 997.705 1139.11 978.791 1103.26 C 974.54 1091.45 973.213 1080.02 975.921 1067.6 C 978.71 1054.55 986.725 1043.21 998.099 1036.23 C 1019.19 1023.01 1047.09 1024.38 1070.45 1029.62 C 1070.43 1028.14 1070.4 1026.67 1070.36 1025.2 C 1069.76 1006 1059.15 992.984 1038.68 994.11 C 1024.41 994.895 1015.9 1001.62 1006.67 1011.87 C 998.256 1005.35 989.313 997.55 981.08 990.657 C 982.564 988.576 984.149 986.567 985.827 984.638 C 1002.54 965.561 1018.33 960.053 1043.03 958.414 z"/>
<path transform="translate(0,0)" fill="rgb(255,255,255)" d="M 1038.33 1055.2 C 1050.61 1054.2 1058.83 1055.5 1070.54 1058.64 C 1070.44 1079.2 1067.68 1089.93 1046.85 1096.96 C 1038.79 1098.6 1029.88 1098.56 1022.74 1093.99 C 1018.2 1091.11 1015.07 1086.46 1014.11 1081.17 C 1013.16 1075.86 1014.44 1070.39 1017.64 1066.05 C 1022.94 1058.76 1030.02 1056.79 1038.33 1055.2 z"/>
<path transform="translate(0,0)" fill="rgb(254,109,1)" d="M 376.535 342.484 C 389.324 342.653 402.115 342.649 414.904 342.473 L 414.971 540.524 C 447.2 541.143 481.132 540.642 513.489 540.639 C 513.997 554.532 513.591 569.543 513.46 583.525 L 501.989 583.487 L 363.987 583.664 L 363.999 342.717 L 376.535 342.484 z"/>
<path transform="translate(0,0)" fill="rgb(254,109,1)" d="M 1209.99 957.385 C 1223.28 956.525 1239.81 962.308 1249.25 971.931 C 1270.96 994.046 1267.12 1027.8 1267.1 1056.54 L 1267.02 1127.99 C 1253.79 1128.23 1240.14 1128.06 1226.88 1128.06 L 1226.97 1061.75 C 1227 1038.87 1232.24 1000.21 1201.2 997.684 C 1190.46 996.812 1183.85 999.515 1175.76 1006.26 C 1163.11 1020.02 1166.13 1048.58 1166.19 1066.43 L 1166.27 1128.09 L 1127.14 1128.04 C 1126.48 1072.88 1127.08 1016.31 1127.16 961.025 L 1166.18 960.973 L 1166.58 981.49 L 1168.95 978.56 C 1181.26 963.552 1190.94 959.254 1209.99 957.385 z"/>
<path transform="translate(0,0)" fill="rgb(254,109,1)" d="M 1108.24 682.224 C 1136.84 679.466 1157.7 695.809 1163.36 723.666 C 1166.86 740.918 1165.68 761.007 1165.67 778.722 L 1165.61 853.019 L 1126.58 853.022 C 1126.5 831.454 1130.1 745.534 1121.63 731.829 C 1118.24 726.337 1113.2 722.808 1106.93 721.377 C 1097.95 719.329 1090.18 721.949 1082.6 726.644 C 1068.4 740.135 1071.7 767.695 1071.74 786.105 L 1071.82 852.956 L 1034.65 853.132 C 1034.64 797.349 1034.16 741.031 1034.78 685.308 C 1047.15 685.127 1059.52 685.073 1071.88 685.146 L 1072.01 704.72 C 1082.78 690.617 1091.07 685.457 1108.24 682.224 z"/>
<path transform="translate(0,0)" fill="rgb(254,109,1)" d="M 1450.18 957.413 C 1483.82 957.744 1506.8 969.198 1523.15 998.998 C 1511.54 1005.59 1499.88 1012.07 1488.16 1018.46 C 1484.23 1012.71 1481.66 1008.81 1476.33 1004.3 C 1459.16 989.395 1428.31 993.546 1414.88 1011.65 C 1398.88 1033.2 1401.77 1069.58 1423.59 1086.25 C 1432.77 1093.29 1444.4 1096.33 1455.86 1094.67 C 1471.68 1092.46 1480.3 1083.71 1489.37 1071.75 L 1498.5 1077.57 L 1521.5 1092.27 C 1496.31 1137.73 1428.98 1144.77 1390.8 1112.14 C 1339.88 1068.62 1358.77 978.535 1424.34 961.111 C 1433.77 958.606 1440.56 957.961 1450.18 957.413 z"/>
<path transform="translate(0,0)" fill="rgb(254,109,1)" d="M 889.375 958.286 C 924.338 954.118 953.714 967.023 969.556 999.08 C 959.382 1005.74 946.922 1012.53 936.253 1018.45 C 931.555 1011.03 925.685 1002.54 917.328 999.11 C 857.296 974.462 836.207 1069.97 884.554 1091 C 899.731 1097.74 917.51 1094.21 928.952 1082.17 C 932.224 1078.79 935.125 1073.54 938.569 1072.16 L 968.308 1092.14 C 967.147 1094.12 965.907 1096.05 964.589 1097.94 C 928.018 1150.19 845.615 1139.26 823.42 1081.54 C 802.404 1026.88 829.505 967.695 889.375 958.286 z"/>
<path transform="translate(0,0)" fill="rgb(63,152,62)" d="M 1650.49 615.366 C 1678.29 611.132 1715.24 620.725 1740.9 630.722 C 1721.16 667.39 1674.86 696.906 1637.25 712.416 C 1619.7 718.638 1603.4 723.381 1584.78 725.53 C 1578.21 697.053 1572.22 680.447 1559.12 654.59 C 1595.22 633.963 1604.61 620.724 1650.49 615.366 z"/>
<path transform="translate(0,0)" fill="rgb(254,109,1)" d="M 1187.06 685.22 L 1226.91 685.035 L 1226.94 803.378 C 1226.94 821.241 1227.14 839.17 1226.81 857.027 C 1226.3 884.212 1220.78 905.105 1193.72 915.486 C 1181.05 919.554 1169.88 919.037 1156.89 918.591 L 1156.94 880.957 C 1174.41 881.574 1185.81 879.494 1186.42 858.599 C 1188.11 800.908 1186.05 742.949 1187.06 685.22 z"/>
<path transform="translate(0,0)" fill="rgb(254,109,1)" d="M 867.02 682.364 C 870.654 682.208 872.191 681.821 875.481 683.418 C 877.6 687.329 876.51 718.598 876.418 725.1 C 875.033 725.039 873.648 724.992 872.262 724.959 C 818.233 723.714 821.061 758.999 821.08 800.375 L 821.052 855.149 L 778.445 855.353 L 778.507 843.75 C 778.6 791.531 777.69 737.299 778.879 685.278 L 821.146 685.139 L 821.449 710.192 C 822.425 708.766 823.446 707.371 824.512 706.01 C 836.618 690.536 847.69 684.652 867.02 682.364 z"/>
<path transform="translate(0,0)" fill="rgb(254,109,1)" d="M 1296 961.046 C 1310.31 960.852 1324.91 961.014 1339.24 961.024 C 1340.67 1014.56 1339.38 1074.01 1339.28 1128.01 L 1295.88 1128.09 C 1295.85 1072.6 1295.39 1016.49 1296 961.046 z"/>
<path transform="translate(0,0)" fill="rgb(254,169,3)" d="M 1421.61 215.106 C 1423.7 214.818 1423.56 214.869 1425.52 215.683 C 1427.17 219.234 1434.47 257.892 1435.52 264.012 C 1441.79 300.578 1451.33 339.729 1456.59 376.248 C 1446.16 378.413 1437.41 381.209 1427.23 384.369 L 1422.58 371.736 C 1406.39 324.685 1387.96 277.826 1371.92 230.835 C 1382.58 225.398 1409.54 218.286 1421.61 215.106 z"/>
<path transform="translate(0,0)" fill="rgb(254,169,3)" d="M 1500.23 207.98 C 1517.93 209.136 1535.56 211.339 1553 214.578 C 1544.99 262.03 1534.7 311.833 1525.37 359.23 L 1522.2 377.62 C 1511.92 375.524 1502.01 374.486 1491.56 373.86 C 1494.19 319.818 1496.21 261.692 1500.23 207.98 z"/>
<path transform="translate(0,0)" fill="rgb(254,169,3)" d="M 1633.43 244.507 C 1642.36 247.65 1671.77 267.694 1679.1 273.978 C 1671.05 286.149 1658.44 302.233 1649.56 314.279 L 1592.84 391.532 L 1583.06 404.973 C 1574.13 398.998 1566.74 394.826 1557.3 389.611 C 1573.45 355.602 1593.32 321.996 1610.11 288.169 C 1617.12 274.031 1625.38 258.02 1633.43 244.507 z"/>
<path transform="translate(0,0)" fill="rgb(254,109,1)" d="M 1310.46 267.592 C 1318.39 273.976 1384.35 382.312 1394.98 400.135 C 1385.68 406.541 1380.11 410.876 1371.85 418.403 C 1369.07 415.696 1365.64 411.702 1362.96 408.736 C 1331.79 375.406 1298.27 340.727 1268.05 306.898 C 1277.86 294.808 1298.18 276.923 1310.46 267.592 z"/>
<path transform="translate(0,0)" fill="rgb(254,169,3)" d="M 1731.02 336.723 C 1737.73 337.243 1754.58 372.583 1758.5 380.059 C 1721.11 402.299 1672.53 426.892 1633.59 447.956 L 1624.89 452.529 C 1619.51 443.76 1614.99 437.154 1608.95 428.812 C 1621.23 418.572 1638.72 406.211 1651.75 396.418 L 1731.02 336.723 z"/>
<path transform="translate(0,0)" fill="rgb(254,109,1)" d="M 1231.07 364.356 C 1236.51 366.366 1266.28 386.394 1272.7 390.86 C 1297.59 408.195 1326.12 425.456 1350.32 443.322 C 1346.44 448.921 1338.2 465.742 1334.74 467.535 C 1310.69 457.671 1285.18 445.34 1261.14 434.871 C 1249.26 429.701 1222.96 418.523 1212.9 412.681 C 1217.31 397.546 1223.63 378.103 1231.07 364.356 z"/>
<path transform="translate(0,0)" fill="rgb(254,169,3)" d="M 1772.77 447.208 C 1776.17 446.702 1774.7 446.351 1777.42 447.859 C 1781.43 456.17 1782 483.11 1782.21 493.126 C 1737.58 499.638 1691.74 504.256 1646.92 510.402 L 1644.54 510.09 C 1641.63 507.736 1639.14 489.776 1637.7 483.674 C 1680.4 470.986 1729.42 458.85 1772.77 447.208 z"/>
<path transform="translate(0,0)" fill="rgb(254,169,3)" d="M 1642.51 542.974 C 1686.54 545.278 1730.97 548.984 1775.11 551.488 C 1772.41 562.355 1767.86 575.461 1764.05 585.95 C 1763.61 586.837 1762.06 589.391 1760.9 589.262 C 1719.21 584.615 1677.67 576.875 1635.95 572.553 C 1638.91 561.597 1640.5 554.233 1642.51 542.974 z"/>
<path transform="translate(0,0)" fill="rgb(254,109,1)" d="M 1736.67 941.235 C 1751.6 938.498 1765.92 948.387 1768.64 963.315 C 1771.37 978.244 1761.47 992.553 1746.54 995.266 C 1731.62 997.976 1717.33 988.09 1714.61 973.178 C 1711.89 958.266 1721.76 943.969 1736.67 941.235 z"/>
<path transform="translate(0,0)" fill="rgb(255,255,255)" d="M 1739.42 946.521 C 1751.14 945.316 1761.71 953.597 1763.34 965.261 C 1764.98 976.925 1757.09 987.793 1745.5 989.856 C 1737.61 991.259 1729.58 988.24 1724.57 981.984 C 1719.56 975.728 1718.37 967.235 1721.47 959.843 C 1724.56 952.451 1731.45 947.341 1739.42 946.521 z"/>
<path transform="translate(0,0)" fill="rgb(254,109,1)" d="M 1731.91 954.196 C 1733.48 954.158 1735.06 954.139 1736.63 954.141 C 1741.88 954.153 1749 954.18 1752.85 958.03 C 1753.64 963.518 1749.82 966.023 1748.99 971.078 C 1748.65 973.151 1751.82 977.905 1752.93 980.085 L 1751.96 981.676 L 1747.64 982.25 C 1745.39 977.781 1743.81 973.358 1739.43 971.224 C 1735.87 975.394 1740.28 978.165 1735.45 983.031 C 1729.83 981.775 1731.82 959.751 1731.91 954.196 z"/>
<path transform="translate(0,0)" fill="rgb(255,255,255)" d="M 1738.92 959.907 C 1740.5 958.214 1743.11 958.016 1744.93 959.451 C 1746.74 960.885 1747.16 963.474 1745.88 965.403 C 1744.95 966.801 1743.32 967.559 1741.65 967.363 C 1739.98 967.167 1738.57 966.05 1737.99 964.475 C 1737.41 962.9 1737.77 961.133 1738.92 959.907 z"/>
<path transform="translate(0,0)" fill="rgb(254,109,1)" d="M 1312.36 890.219 C 1325.8 887.234 1339.13 895.658 1342.21 909.081 C 1345.29 922.504 1336.96 935.895 1323.56 939.065 C 1310.02 942.266 1296.47 933.834 1293.37 920.28 C 1290.26 906.726 1298.78 893.234 1312.36 890.219 z"/>
<path transform="translate(0,0)" fill="rgb(254,109,1)" d="M 1046.97 890.106 C 1061.12 889.992 1075.26 889.97 1089.41 890.038 C 1080.66 903.482 1069.47 918.565 1060.09 931.796 C 1058.74 934.07 1058.07 934.911 1056.38 936.97 C 1050.14 940.202 1031.73 938.637 1023.33 938.626 C 1030.89 922.302 1038.78 906.125 1046.97 890.106 z"/>
<path transform="translate(0,0)" fill="rgb(254,109,1)" d="M 1205.99 616.256 C 1219.04 615.837 1229.96 626.081 1230.38 639.136 C 1230.8 652.191 1220.56 663.114 1207.5 663.533 C 1194.45 663.952 1183.52 653.708 1183.11 640.652 C 1182.69 627.597 1192.93 616.674 1205.99 616.256 z"/>
</svg>